<svg xmlns="http://www.w3.org/2000/svg"  viewBox="0 0 24 24" width="24px" height="24px"><path d="M 21 4 A 1 1 0 0 0 21 6 A 1 1 0 0 0 21 4 z M 12.695312 5.1777344 C 11.078231 5.1777344 9.7841056 6.80981 9.6601562 9.1074219 C 9.6587062 9.1182089 9.6210938 9.2167969 9.6210938 9.2167969 L 9.6445312 9.21875 C 9.6417913 9.295911 9.6132812 9.3569313 9.6132812 9.4355469 C 9.6132812 10.717217 10.661265 11.822266 12 11.822266 C 13.338735 11.822266 14.386719 10.717711 14.386719 9.4355469 C 14.386719 8.1749734 13.354467 7.1492714 12.070312 7.0917969 C 12.292435 6.9182277 12.526794 6.6777344 12.695312 6.6777344 L 13.441406 6.6777344 L 13.441406 5.1777344 L 12.695312 5.1777344 z M 17.613281 5.1777344 C 16.772906 5.1777344 16.093142 5.7234837 15.732422 6.3613281 C 15.371701 6.9991726 15.226563 7.750713 15.226562 8.5 C 15.226562 9.249287 15.371701 10.000827 15.732422 10.638672 C 16.093142 11.276516 16.772906 11.822266 17.613281 11.822266 C 18.453656 11.822266 19.13342 11.276516 19.494141 10.638672 C 19.854861 10.000827 20 9.249287 20 8.5 C 20 7.750713 19.854861 6.9991726 19.494141 6.3613281 C 19.13342 5.7234837 18.453656 5.1777344 17.613281 5.1777344 z M 6.390625 5.1796875 C 5.380625 5.1796875 4.480625 5.7894531 4.140625 6.6894531 L 5.5390625 7.2207031 C 5.6690625 6.9007031 6.000625 6.6796875 6.390625 6.6796875 C 6.880625 6.6796875 7.2692969 7.0299219 7.2792969 7.4199219 C 7.2792969 7.9539219 6.2402344 7.9394531 6.2402344 7.9394531 L 6.2402344 9.1308594 C 6.2402344 9.1308594 7.2695312 9.0958438 7.2695312 9.7148438 C 7.2695312 10.292844 6.610625 10.320312 6.390625 10.320312 C 5.810625 10.320312 5.4003906 9.6601562 5.4003906 9.6601562 L 4.0996094 10.419922 C 4.4096094 10.939922 5.240625 11.820312 6.390625 11.820312 C 8.040625 11.820312 8.7695312 10.690313 8.7695312 9.5703125 C 8.7695312 9.1003125 8.599375 8.7407031 8.359375 8.4707031 C 8.599375 8.2107031 8.7695312 7.8807031 8.7695312 7.4707031 C 8.7695312 6.2107031 7.700625 5.1796875 6.390625 5.1796875 z M 17.613281 6.6777344 C 17.864239 6.6777344 18.002554 6.7725784 18.1875 7.0996094 C 18.372446 7.4266399 18.5 7.962787 18.5 8.5 C 18.5 9.037213 18.372446 9.5733601 18.1875 9.9003906 C 18.002554 10.227421 17.864239 10.322266 17.613281 10.322266 C 17.362323 10.322266 17.222055 10.227416 17.037109 9.9003906 C 16.852164 9.5733601 16.726562 9.037213 16.726562 8.5 C 16.726562 7.962787 16.852164 7.4266399 17.037109 7.0996094 C 17.222055 6.7725788 17.362323 6.6777344 17.613281 6.6777344 z M 11.976562 8.5527344 C 12.449148 8.5527344 12.886719 9.0277957 12.886719 9.4355469 C 12.886719 9.8573826 12.469265 10.322266 12 10.322266 C 11.530735 10.322266 11.113281 9.8558771 11.113281 9.4355469 C 11.113281 9.3341227 11.170221 9.3102105 11.175781 9.2148438 C 11.198361 9.1265797 11.196081 9.0738829 11.277344 8.9375 C 11.411305 8.7126599 11.523642 8.5527344 11.976562 8.5527344 z M 3 9.1601562 C 1.13 10.170156 0 11.51 0 13 C 0 16.023171 4.6455353 18.436762 10.783203 18.720703 L 9.5078125 19.792969 L 10.472656 20.941406 L 13.974609 18 L 10.472656 15.058594 L 9.5078125 16.207031 L 10.707031 17.214844 C 5.2192683 16.929695 1.5 14.866595 1.5 13 C 1.5 12.3 2.04 11.560391 3 10.900391 L 3 9.1601562 z M 21 9.1601562 L 21 10.900391 C 21.96 11.560391 22.5 12.3 22.5 13 C 22.5 14.6 19.899687 16.190859 16.179688 16.880859 L 15.449219 17.019531 L 15.720703 18.490234 L 16.460938 18.349609 C 21.110937 17.489609 24 15.44 24 13 C 24 11.51 22.87 10.170156 21 9.1601562 z"/></svg>