<svg xmlns="http://www.w3.org/2000/svg"  viewBox="0 0 50 50" width="50px" height="50px"><path d="M 34.427734 4.8496094 L 33.810547 4.96875 L 21.810547 7.2773438 L 21.646484 7.3105469 L 21.5 7.3945312 L 3.5 17.783203 L 3 18.072266 L 3 18.650391 L 3 20.960938 L 3 22.171875 L 4.1894531 21.941406 L 6 21.591797 L 6 34.240234 L 6 34.818359 L 6.5 35.107422 L 9.5 36.837891 L 10.001953 37.126953 L 10.501953 36.835938 L 12 35.966797 L 13 36.546875 L 13 38.279297 L 13 38.857422 L 13.5 39.146484 L 24.5 45.496094 L 25 45.785156 L 25.5 45.496094 L 43.5 35.105469 L 44 34.816406 L 44 34.240234 L 44 26.728516 L 46.5 25.287109 L 47 24.998047 L 47 24.419922 L 47 22.109375 L 47 21.779297 L 46.802734 21.513672 L 34.802734 5.3535156 L 34.427734 4.8496094 z M 33.931641 6.2773438 L 45.630859 22.033203 L 28.068359 32.177734 L 16.367188 16.416016 L 33.931641 6.2773438 z M 32.59375 6.4746094 L 15.912109 16.101562 L 5.4140625 18.123047 L 22.087891 8.4980469 L 32.59375 6.4746094 z M 15.892578 16.615234 L 27.75 32.587891 L 27.75 34.056641 L 16.201172 18.5 A 0.250025 0.250025 0 0 0 16.007812 18.398438 A 0.250025 0.250025 0 0 0 15.953125 18.404297 L 6.96875 20.132812 L 6.953125 20.134766 L 4.25 20.658203 L 4.25 18.855469 L 15.892578 16.615234 z M 15.892578 18.923828 L 24.75 30.857422 L 24.75 44.197266 L 14.25 38.134766 L 14.25 35.970703 L 14.25 29.041016 A 0.250025 0.250025 0 0 0 14.125 28.824219 L 10.125 26.515625 A 0.250025 0.250025 0 0 0 9.9804688 26.482422 A 0.250025 0.250025 0 0 0 9.75 26.732422 L 9.75 35.537109 L 7.25 34.095703 L 7.25 20.585938 L 15.892578 18.923828 z M 45.75 22.542969 L 45.75 24.275391 L 42.875 25.933594 A 0.250025 0.250025 0 0 0 42.853516 25.947266 L 28.25 34.380859 L 28.25 32.650391 L 45.75 22.542969 z M 42.75 26.583984 L 42.75 34.095703 L 25.25 44.197266 L 25.25 31.53125 L 27.798828 34.964844 A 0.250025 0.250025 0 0 0 28.125 35.03125 L 42.75 26.583984 z M 10.25 27.166016 L 11.75 28.03125 L 11.75 34.666016 L 10.25 35.537109 L 10.25 27.166016 z M 16.980469 28.214844 A 0.250025 0.250025 0 0 0 16.75 28.464844 L 16.75 34.238281 A 0.250025 0.250025 0 0 0 16.875 34.455078 L 21.875 37.339844 A 0.250025 0.250025 0 0 0 22.25 37.123047 L 22.25 31.351562 A 0.250025 0.250025 0 0 0 22.125 31.134766 L 17.125 28.248047 A 0.250025 0.250025 0 0 0 16.980469 28.214844 z M 12.25 28.320312 L 13.75 29.185547 L 13.75 35.537109 L 12.25 34.666016 L 12.25 28.320312 z M 17.25 28.896484 L 18.75 29.763672 L 18.75 32.939453 L 17.25 33.804688 L 17.25 28.896484 z M 19.25 30.052734 L 21.75 31.496094 L 21.75 34.380859 L 19.25 32.939453 L 19.25 30.052734 z M 19 33.371094 L 21.75 34.958984 L 21.75 36.691406 L 17.5 34.238281 L 19 33.371094 z"/></svg>